<?xml version="1.0" encoding="utf-8"?>
<!-- Generator: Adobe Illustrator 21.1.0, SVG Export Plug-In . SVG Version: 6.00 Build 0)  -->
<svg version="1.1" id="Layer_1" xmlns="http://www.w3.org/2000/svg" xmlns:xlink="http://www.w3.org/1999/xlink" x="0px" y="0px"
	 viewBox="0 0 200 200" style="enable-background:new 0 0 200 200;" xml:space="preserve">
<style type="text/css">
	.st0{fill:#0000FF;}
</style>
<path class="st0" d="M190.5,78.3l-0.9-0.9l-42.1-44.7h-1.3H99.9H54.8h-0.7L54,32.8L53.8,33L10.8,77.3l-0.9,0.9l0.9,0.9l88.6,88.5
	h1.5l88.6-88.5L190.5,78.3z M57.2,79.2h42.7h0.5h43.3l-43.5,85.9L57.2,79.2z M121.4,55.9l-21.2,20.9L79.3,55.9L100.2,35L121.4,55.9z
	 M97.9,77.2H58l20-20L97.9,77.2z M122.7,57.2l20.3,20h-40.5L122.7,57.2z M102.4,34.6H143l-20.3,20L102.4,34.6z M78,54.6l-20-20h40
	L78,54.6z M76.6,55.9L76.6,55.9L76.6,55.9l-20,20V36L76.6,55.9z M124,55.9l20.3-20v40L124,55.9z M146.7,77.3h-0.6V34.5h0.5L187,77.3
	H146.7z M54.8,34.6v42.7h-0.6H13.4L54.8,34.6z M13.4,79.2h41.4h0.4l41.6,83.2L13.4,79.2z M103.6,162.4l42.2-83.2h0.4h40.8
	L103.6,162.4z"/>
</svg>
