<?xml version="1.0" encoding="utf-8"?>
<!-- Generator: Adobe Illustrator 21.1.0, SVG Export Plug-In . SVG Version: 6.00 Build 0)  -->
<svg version="1.1" id="Layer_1" xmlns="http://www.w3.org/2000/svg" xmlns:xlink="http://www.w3.org/1999/xlink" x="0px" y="0px"
	 viewBox="0 0 200 200" style="enable-background:new 0 0 200 200;" xml:space="preserve">
<style type="text/css">
	.st0{fill:#9933CC;}
</style>
<path class="st0" d="M189.3,77.4l-42.1-44.7h-47.1h-47L10.5,77.4l0,1.9l88.6,88.5l1.7,0l88.6-88.5L189.3,77.4z M142.7,34.7l-20.3,20
	l-20.3-20H142.7z M97.7,34.7l-20,20l-20-20H97.7z M99.9,35.1L121.1,56L99.9,76.9L79,56L99.9,35.1z M99.9,163.7L77.1,79.3h22.6h0.5
	h21.9L99.9,163.7z M102.2,77.3l20.3-20l20.3,20H102.2z M97.7,77.3h-40l20-20L97.7,77.3z M75.1,79.3l21.4,79.3L56.9,79.3H75.1z
	 M124,79.3h19.4L103,159L124,79.3z M146.5,77.4h-1L123.8,56l21.7-21.4h1l40.4,42.8H146.5z M54,34.6h1L76.4,56L54.9,77.4h-1H13
	L54,34.6z M54.9,79.3l41.7,83.3L13.1,79.3H54.9z M103.3,162.5l42.2-83.2h41.1L103.3,162.5z"/>
</svg>
