<?xml version="1.0" encoding="utf-8"?>
<!-- Generator: Adobe Illustrator 21.1.0, SVG Export Plug-In . SVG Version: 6.00 Build 0)  -->
<svg version="1.1" id="Layer_1" xmlns="http://www.w3.org/2000/svg" xmlns:xlink="http://www.w3.org/1999/xlink" x="0px" y="0px"
	 viewBox="0 0 200 200" style="enable-background:new 0 0 200 200;" xml:space="preserve">
<style type="text/css">
	.st0{fill:#CCFFFF;}
</style>
<path class="st0" d="M100.2,167.5L56.4,80h43.1l0.7,0.7l0.7-0.7h43.7L100.2,167.5z M94.9,75.4L76.5,57.1L58.2,75.4H94.9z
	 M146.1,73.2V32.5h-41.3L146.1,73.2z M142.7,75.4l-18.6-18.4l-18.6,18.4H142.7z M100.2,75.1l21.1-20.8l-21.1-20.8L79.3,54.3
	L100.2,75.1z M150,80h-1.1l-41.4,81.8L189.4,80H150z M150,75.4h1.2h38.2L150,35.4V75.4z M49.7,75.4h1.2V35.3l-40,40.1H49.7z M52,80
	h-1.1h-40l82,81.9L52,80z M54.9,32.5v40.6l18.9-18.9l0,0l21.8-21.8H54.9z"/>
</svg>
